<mxfile host="app.diagrams.net" modified="2022-07-13T13:45:25.175Z" agent="5.0 (Windows)" etag="OrLEwXvoppXrmzWZRLNu" version="20.1.1" type="github">
  <diagram id="5yAJ8ZaCijX4T1ycAplT" name="Page-1">
    <mxGraphModel dx="2031" dy="1114" grid="0" gridSize="10" guides="1" tooltips="1" connect="1" arrows="1" fold="1" page="1" pageScale="1" pageWidth="1654" pageHeight="2336" background="#ffffff" math="0" shadow="0">
      <root>
        <mxCell id="0" />
        <mxCell id="1" parent="0" />
        <mxCell id="YL0PsNm_QgpDCuNlVShX-8" value="Accounts&#xa;" style="swimlane;fontStyle=1;align=center;verticalAlign=top;childLayout=stackLayout;horizontal=1;startSize=26;horizontalStack=0;resizeParent=1;resizeParentMax=0;resizeLast=0;collapsible=1;marginBottom=0;sketch=1;fontSize=14;fillColor=default;strokeColor=default;rounded=0;" vertex="1" parent="1">
          <mxGeometry x="659" y="606" width="270" height="242" as="geometry" />
        </mxCell>
        <mxCell id="YL0PsNm_QgpDCuNlVShX-9" value="+ id : integer(PK)&#xa;" style="text;strokeColor=default;fillColor=default;align=left;verticalAlign=top;spacingLeft=4;spacingRight=4;overflow=hidden;rotatable=0;points=[[0,0.5],[1,0.5]];portConstraint=eastwest;sketch=1;fontSize=14;rounded=0;" vertex="1" parent="YL0PsNm_QgpDCuNlVShX-8">
          <mxGeometry y="26" width="270" height="26" as="geometry" />
        </mxCell>
        <mxCell id="YL0PsNm_QgpDCuNlVShX-10" value="" style="line;strokeWidth=1;fillColor=default;align=left;verticalAlign=middle;spacingTop=-1;spacingLeft=3;spacingRight=3;rotatable=0;labelPosition=right;points=[];portConstraint=eastwest;sketch=1;fontSize=14;strokeColor=default;rounded=0;" vertex="1" parent="YL0PsNm_QgpDCuNlVShX-8">
          <mxGeometry y="52" width="270" height="8" as="geometry" />
        </mxCell>
        <mxCell id="YL0PsNm_QgpDCuNlVShX-11" value="+ user_id : integer (FK)" style="text;strokeColor=default;fillColor=default;align=left;verticalAlign=top;spacingLeft=4;spacingRight=4;overflow=hidden;rotatable=0;points=[[0,0.5],[1,0.5]];portConstraint=eastwest;sketch=1;fontSize=14;rounded=0;" vertex="1" parent="YL0PsNm_QgpDCuNlVShX-8">
          <mxGeometry y="60" width="270" height="26" as="geometry" />
        </mxCell>
        <mxCell id="YL0PsNm_QgpDCuNlVShX-21" value="+ Account_type_id (optional) : integer (FK)" style="text;strokeColor=default;fillColor=default;align=left;verticalAlign=top;spacingLeft=4;spacingRight=4;overflow=hidden;rotatable=0;points=[[0,0.5],[1,0.5]];portConstraint=eastwest;sketch=1;fontSize=14;rounded=0;" vertex="1" parent="YL0PsNm_QgpDCuNlVShX-8">
          <mxGeometry y="86" width="270" height="26" as="geometry" />
        </mxCell>
        <mxCell id="YL0PsNm_QgpDCuNlVShX-22" value="+ name : varchar " style="text;strokeColor=default;fillColor=default;align=left;verticalAlign=top;spacingLeft=4;spacingRight=4;overflow=hidden;rotatable=0;points=[[0,0.5],[1,0.5]];portConstraint=eastwest;sketch=1;fontSize=14;rounded=0;" vertex="1" parent="YL0PsNm_QgpDCuNlVShX-8">
          <mxGeometry y="112" width="270" height="26" as="geometry" />
        </mxCell>
        <mxCell id="YL0PsNm_QgpDCuNlVShX-23" value="+ balance :long " style="text;strokeColor=default;fillColor=default;align=left;verticalAlign=top;spacingLeft=4;spacingRight=4;overflow=hidden;rotatable=0;points=[[0,0.5],[1,0.5]];portConstraint=eastwest;sketch=1;fontSize=14;rounded=0;" vertex="1" parent="YL0PsNm_QgpDCuNlVShX-8">
          <mxGeometry y="138" width="270" height="26" as="geometry" />
        </mxCell>
        <mxCell id="YL0PsNm_QgpDCuNlVShX-24" value="+ created_at : datetime&#xa;" style="text;strokeColor=default;fillColor=default;align=left;verticalAlign=top;spacingLeft=4;spacingRight=4;overflow=hidden;rotatable=0;points=[[0,0.5],[1,0.5]];portConstraint=eastwest;sketch=1;fontSize=14;rounded=0;" vertex="1" parent="YL0PsNm_QgpDCuNlVShX-8">
          <mxGeometry y="164" width="270" height="26" as="geometry" />
        </mxCell>
        <mxCell id="YL0PsNm_QgpDCuNlVShX-26" value="+ updated_at : datetime&#xa;" style="text;strokeColor=default;fillColor=default;align=left;verticalAlign=top;spacingLeft=4;spacingRight=4;overflow=hidden;rotatable=0;points=[[0,0.5],[1,0.5]];portConstraint=eastwest;sketch=1;fontSize=14;rounded=0;" vertex="1" parent="YL0PsNm_QgpDCuNlVShX-8">
          <mxGeometry y="190" width="270" height="26" as="geometry" />
        </mxCell>
        <mxCell id="YL0PsNm_QgpDCuNlVShX-25" value="+ deleted_at : datetime || null&#xa;" style="text;strokeColor=default;fillColor=default;align=left;verticalAlign=top;spacingLeft=4;spacingRight=4;overflow=hidden;rotatable=0;points=[[0,0.5],[1,0.5]];portConstraint=eastwest;sketch=1;fontSize=14;rounded=0;" vertex="1" parent="YL0PsNm_QgpDCuNlVShX-8">
          <mxGeometry y="216" width="270" height="26" as="geometry" />
        </mxCell>
        <mxCell id="YL0PsNm_QgpDCuNlVShX-12" value="Users" style="swimlane;fontStyle=1;align=center;verticalAlign=top;childLayout=stackLayout;horizontal=1;startSize=26;horizontalStack=0;resizeParent=1;resizeParentMax=0;resizeLast=0;collapsible=1;marginBottom=0;sketch=1;fontSize=14;fillColor=default;rounded=0;" vertex="1" parent="1">
          <mxGeometry x="179" y="696" width="270" height="190" as="geometry" />
        </mxCell>
        <mxCell id="YL0PsNm_QgpDCuNlVShX-13" value="+ id : integer (PK)" style="text;strokeColor=default;fillColor=default;align=left;verticalAlign=top;spacingLeft=4;spacingRight=4;overflow=hidden;rotatable=0;points=[[0,0.5],[1,0.5]];portConstraint=eastwest;sketch=1;fontSize=14;rounded=0;" vertex="1" parent="YL0PsNm_QgpDCuNlVShX-12">
          <mxGeometry y="26" width="270" height="26" as="geometry" />
        </mxCell>
        <mxCell id="YL0PsNm_QgpDCuNlVShX-14" value="" style="line;strokeWidth=1;fillColor=default;align=left;verticalAlign=middle;spacingTop=-1;spacingLeft=3;spacingRight=3;rotatable=0;labelPosition=right;points=[];portConstraint=eastwest;sketch=1;fontSize=14;rounded=0;" vertex="1" parent="YL0PsNm_QgpDCuNlVShX-12">
          <mxGeometry y="52" width="270" height="8" as="geometry" />
        </mxCell>
        <mxCell id="YL0PsNm_QgpDCuNlVShX-15" value="+ email:  varchar" style="text;strokeColor=none;fillColor=default;align=left;verticalAlign=top;spacingLeft=4;spacingRight=4;overflow=hidden;rotatable=0;points=[[0,0.5],[1,0.5]];portConstraint=eastwest;sketch=1;fontSize=14;rounded=0;" vertex="1" parent="YL0PsNm_QgpDCuNlVShX-12">
          <mxGeometry y="60" width="270" height="26" as="geometry" />
        </mxCell>
        <mxCell id="YL0PsNm_QgpDCuNlVShX-17" value="+ name:  varchar" style="text;strokeColor=default;fillColor=default;align=left;verticalAlign=top;spacingLeft=4;spacingRight=4;overflow=hidden;rotatable=0;points=[[0,0.5],[1,0.5]];portConstraint=eastwest;sketch=1;fontSize=14;rounded=0;" vertex="1" parent="YL0PsNm_QgpDCuNlVShX-12">
          <mxGeometry y="86" width="270" height="26" as="geometry" />
        </mxCell>
        <mxCell id="YL0PsNm_QgpDCuNlVShX-18" value="+ password : varchar" style="text;strokeColor=default;fillColor=default;align=left;verticalAlign=top;spacingLeft=4;spacingRight=4;overflow=hidden;rotatable=0;points=[[0,0.5],[1,0.5]];portConstraint=eastwest;sketch=1;fontSize=14;rounded=0;" vertex="1" parent="YL0PsNm_QgpDCuNlVShX-12">
          <mxGeometry y="112" width="270" height="26" as="geometry" />
        </mxCell>
        <mxCell id="YL0PsNm_QgpDCuNlVShX-19" value="+ created_at : datetime" style="text;strokeColor=default;fillColor=default;align=left;verticalAlign=top;spacingLeft=4;spacingRight=4;overflow=hidden;rotatable=0;points=[[0,0.5],[1,0.5]];portConstraint=eastwest;sketch=1;fontSize=14;rounded=0;" vertex="1" parent="YL0PsNm_QgpDCuNlVShX-12">
          <mxGeometry y="138" width="270" height="26" as="geometry" />
        </mxCell>
        <mxCell id="YL0PsNm_QgpDCuNlVShX-20" value="+ updated_at : datetime" style="text;strokeColor=default;fillColor=default;align=left;verticalAlign=top;spacingLeft=4;spacingRight=4;overflow=hidden;rotatable=0;points=[[0,0.5],[1,0.5]];portConstraint=eastwest;sketch=1;fontSize=14;rounded=0;" vertex="1" parent="YL0PsNm_QgpDCuNlVShX-12">
          <mxGeometry y="164" width="270" height="26" as="geometry" />
        </mxCell>
        <mxCell id="YL0PsNm_QgpDCuNlVShX-27" style="edgeStyle=orthogonalEdgeStyle;rounded=0;orthogonalLoop=1;jettySize=auto;html=1;sketch=1;fontSize=14;" edge="1" parent="1" source="YL0PsNm_QgpDCuNlVShX-13" target="YL0PsNm_QgpDCuNlVShX-11">
          <mxGeometry relative="1" as="geometry" />
        </mxCell>
        <mxCell id="YL0PsNm_QgpDCuNlVShX-36" value="Account Types" style="swimlane;fontStyle=1;align=center;verticalAlign=top;childLayout=stackLayout;horizontal=1;startSize=26;horizontalStack=0;resizeParent=1;resizeParentMax=0;resizeLast=0;collapsible=1;marginBottom=0;sketch=1;fontSize=14;fillColor=default;strokeColor=default;rounded=0;" vertex="1" parent="1">
          <mxGeometry x="1099" y="696" width="270" height="112" as="geometry" />
        </mxCell>
        <mxCell id="YL0PsNm_QgpDCuNlVShX-37" value="+ id : integer (PK)" style="text;strokeColor=default;fillColor=default;align=left;verticalAlign=top;spacingLeft=4;spacingRight=4;overflow=hidden;rotatable=0;points=[[0,0.5],[1,0.5]];portConstraint=eastwest;sketch=1;fontSize=14;rounded=0;" vertex="1" parent="YL0PsNm_QgpDCuNlVShX-36">
          <mxGeometry y="26" width="270" height="26" as="geometry" />
        </mxCell>
        <mxCell id="YL0PsNm_QgpDCuNlVShX-38" value="" style="line;strokeWidth=1;fillColor=default;align=left;verticalAlign=middle;spacingTop=-1;spacingLeft=3;spacingRight=3;rotatable=0;labelPosition=right;points=[];portConstraint=eastwest;sketch=1;fontSize=14;strokeColor=default;rounded=0;" vertex="1" parent="YL0PsNm_QgpDCuNlVShX-36">
          <mxGeometry y="52" width="270" height="8" as="geometry" />
        </mxCell>
        <mxCell id="YL0PsNm_QgpDCuNlVShX-39" value="+ name:  varchar" style="text;strokeColor=default;fillColor=default;align=left;verticalAlign=top;spacingLeft=4;spacingRight=4;overflow=hidden;rotatable=0;points=[[0,0.5],[1,0.5]];portConstraint=eastwest;sketch=1;fontSize=14;rounded=0;" vertex="1" parent="YL0PsNm_QgpDCuNlVShX-36">
          <mxGeometry y="60" width="270" height="26" as="geometry" />
        </mxCell>
        <mxCell id="YL0PsNm_QgpDCuNlVShX-44" value="+ description: text" style="text;strokeColor=default;fillColor=default;align=left;verticalAlign=top;spacingLeft=4;spacingRight=4;overflow=hidden;rotatable=0;points=[[0,0.5],[1,0.5]];portConstraint=eastwest;sketch=1;fontSize=14;rounded=0;" vertex="1" parent="YL0PsNm_QgpDCuNlVShX-36">
          <mxGeometry y="86" width="270" height="26" as="geometry" />
        </mxCell>
        <mxCell id="YL0PsNm_QgpDCuNlVShX-46" style="edgeStyle=orthogonalEdgeStyle;rounded=0;orthogonalLoop=1;jettySize=auto;html=1;entryX=1;entryY=0.5;entryDx=0;entryDy=0;sketch=1;fontSize=14;" edge="1" parent="1" source="YL0PsNm_QgpDCuNlVShX-37" target="YL0PsNm_QgpDCuNlVShX-21">
          <mxGeometry relative="1" as="geometry" />
        </mxCell>
        <mxCell id="YL0PsNm_QgpDCuNlVShX-47" value="Transactions Types" style="swimlane;fontStyle=1;align=center;verticalAlign=top;childLayout=stackLayout;horizontal=1;startSize=26;horizontalStack=0;resizeParent=1;resizeParentMax=0;resizeLast=0;collapsible=1;marginBottom=0;sketch=1;fontSize=14;fillColor=default;rounded=0;" vertex="1" parent="1">
          <mxGeometry x="179" y="160" width="270" height="112" as="geometry" />
        </mxCell>
        <mxCell id="YL0PsNm_QgpDCuNlVShX-48" value="+ id : integer (PK)" style="text;strokeColor=default;fillColor=default;align=left;verticalAlign=top;spacingLeft=4;spacingRight=4;overflow=hidden;rotatable=0;points=[[0,0.5],[1,0.5]];portConstraint=eastwest;sketch=1;fontSize=14;rounded=0;" vertex="1" parent="YL0PsNm_QgpDCuNlVShX-47">
          <mxGeometry y="26" width="270" height="26" as="geometry" />
        </mxCell>
        <mxCell id="YL0PsNm_QgpDCuNlVShX-49" value="" style="line;strokeWidth=1;fillColor=default;align=left;verticalAlign=middle;spacingTop=-1;spacingLeft=3;spacingRight=3;rotatable=0;labelPosition=right;points=[];portConstraint=eastwest;sketch=1;fontSize=14;rounded=0;" vertex="1" parent="YL0PsNm_QgpDCuNlVShX-47">
          <mxGeometry y="52" width="270" height="8" as="geometry" />
        </mxCell>
        <mxCell id="YL0PsNm_QgpDCuNlVShX-50" value="+ name:  varchar" style="text;strokeColor=default;fillColor=default;align=left;verticalAlign=top;spacingLeft=4;spacingRight=4;overflow=hidden;rotatable=0;points=[[0,0.5],[1,0.5]];portConstraint=eastwest;sketch=1;fontSize=14;rounded=0;" vertex="1" parent="YL0PsNm_QgpDCuNlVShX-47">
          <mxGeometry y="60" width="270" height="26" as="geometry" />
        </mxCell>
        <mxCell id="YL0PsNm_QgpDCuNlVShX-51" value="+ description: text" style="text;strokeColor=default;fillColor=default;align=left;verticalAlign=top;spacingLeft=4;spacingRight=4;overflow=hidden;rotatable=0;points=[[0,0.5],[1,0.5]];portConstraint=eastwest;sketch=1;fontSize=14;rounded=0;" vertex="1" parent="YL0PsNm_QgpDCuNlVShX-47">
          <mxGeometry y="86" width="270" height="26" as="geometry" />
        </mxCell>
        <mxCell id="YL0PsNm_QgpDCuNlVShX-57" value="Transactions" style="swimlane;fontStyle=1;align=center;verticalAlign=top;childLayout=stackLayout;horizontal=1;startSize=26;horizontalStack=0;resizeParent=1;resizeParentMax=0;resizeLast=0;collapsible=1;marginBottom=0;sketch=1;fontSize=14;fillColor=default;gradientColor=none;rounded=0;" vertex="1" parent="1">
          <mxGeometry x="659" y="196" width="270" height="216" as="geometry" />
        </mxCell>
        <mxCell id="YL0PsNm_QgpDCuNlVShX-58" value="+ id : integer (PK)" style="text;strokeColor=default;fillColor=default;align=left;verticalAlign=top;spacingLeft=4;spacingRight=4;overflow=hidden;rotatable=0;points=[[0,0.5],[1,0.5]];portConstraint=eastwest;sketch=1;fontSize=14;rounded=0;" vertex="1" parent="YL0PsNm_QgpDCuNlVShX-57">
          <mxGeometry y="26" width="270" height="26" as="geometry" />
        </mxCell>
        <mxCell id="YL0PsNm_QgpDCuNlVShX-59" value="" style="line;strokeWidth=1;fillColor=default;align=left;verticalAlign=middle;spacingTop=-1;spacingLeft=3;spacingRight=3;rotatable=0;labelPosition=right;points=[];portConstraint=eastwest;sketch=1;fontSize=14;rounded=0;" vertex="1" parent="YL0PsNm_QgpDCuNlVShX-57">
          <mxGeometry y="52" width="270" height="8" as="geometry" />
        </mxCell>
        <mxCell id="YL0PsNm_QgpDCuNlVShX-60" value="+ transaction_type_id : integer (FK)" style="text;strokeColor=default;fillColor=default;align=left;verticalAlign=top;spacingLeft=4;spacingRight=4;overflow=hidden;rotatable=0;points=[[0,0.5],[1,0.5]];portConstraint=eastwest;sketch=1;fontSize=14;rounded=0;" vertex="1" parent="YL0PsNm_QgpDCuNlVShX-57">
          <mxGeometry y="60" width="270" height="26" as="geometry" />
        </mxCell>
        <mxCell id="YL0PsNm_QgpDCuNlVShX-61" value="+ account_id : integer (FK)" style="text;strokeColor=default;fillColor=default;align=left;verticalAlign=top;spacingLeft=4;spacingRight=4;overflow=hidden;rotatable=0;points=[[0,0.5],[1,0.5]];portConstraint=eastwest;sketch=1;fontSize=14;rounded=0;" vertex="1" parent="YL0PsNm_QgpDCuNlVShX-57">
          <mxGeometry y="86" width="270" height="26" as="geometry" />
        </mxCell>
        <mxCell id="YL0PsNm_QgpDCuNlVShX-62" value="+ description: text" style="text;strokeColor=default;fillColor=default;align=left;verticalAlign=top;spacingLeft=4;spacingRight=4;overflow=hidden;rotatable=0;points=[[0,0.5],[1,0.5]];portConstraint=eastwest;sketch=1;fontSize=14;rounded=0;" vertex="1" parent="YL0PsNm_QgpDCuNlVShX-57">
          <mxGeometry y="112" width="270" height="26" as="geometry" />
        </mxCell>
        <mxCell id="YL0PsNm_QgpDCuNlVShX-67" value="+ reference_code : varchar&amp;&amp;unique" style="text;strokeColor=default;fillColor=default;align=left;verticalAlign=top;spacingLeft=4;spacingRight=4;overflow=hidden;rotatable=0;points=[[0,0.5],[1,0.5]];portConstraint=eastwest;sketch=1;fontSize=14;rounded=0;" vertex="1" parent="YL0PsNm_QgpDCuNlVShX-57">
          <mxGeometry y="138" width="270" height="26" as="geometry" />
        </mxCell>
        <mxCell id="YL0PsNm_QgpDCuNlVShX-63" value="+ morphable_id : integeger (FK)" style="text;strokeColor=default;fillColor=default;align=left;verticalAlign=top;spacingLeft=4;spacingRight=4;overflow=hidden;rotatable=0;points=[[0,0.5],[1,0.5]];portConstraint=eastwest;sketch=1;fontSize=14;rounded=0;" vertex="1" parent="YL0PsNm_QgpDCuNlVShX-57">
          <mxGeometry y="164" width="270" height="26" as="geometry" />
        </mxCell>
        <mxCell id="YL0PsNm_QgpDCuNlVShX-64" value="+ morphable_type : varchar" style="text;strokeColor=default;fillColor=default;align=left;verticalAlign=top;spacingLeft=4;spacingRight=4;overflow=hidden;rotatable=0;points=[[0,0.5],[1,0.5]];portConstraint=eastwest;sketch=1;fontSize=14;rounded=0;" vertex="1" parent="YL0PsNm_QgpDCuNlVShX-57">
          <mxGeometry y="190" width="270" height="26" as="geometry" />
        </mxCell>
        <mxCell id="YL0PsNm_QgpDCuNlVShX-65" style="edgeStyle=orthogonalEdgeStyle;rounded=0;orthogonalLoop=1;jettySize=auto;html=1;sketch=1;fontSize=14;" edge="1" parent="1" source="YL0PsNm_QgpDCuNlVShX-61" target="YL0PsNm_QgpDCuNlVShX-9">
          <mxGeometry relative="1" as="geometry">
            <Array as="points">
              <mxPoint x="599" y="295" />
              <mxPoint x="599" y="645" />
            </Array>
          </mxGeometry>
        </mxCell>
        <mxCell id="YL0PsNm_QgpDCuNlVShX-66" style="edgeStyle=orthogonalEdgeStyle;rounded=0;orthogonalLoop=1;jettySize=auto;html=1;entryX=1;entryY=0.5;entryDx=0;entryDy=0;sketch=1;fontSize=14;" edge="1" parent="1" source="YL0PsNm_QgpDCuNlVShX-63" target="YL0PsNm_QgpDCuNlVShX-9">
          <mxGeometry relative="1" as="geometry">
            <Array as="points">
              <mxPoint x="949" y="373" />
              <mxPoint x="949" y="645" />
            </Array>
          </mxGeometry>
        </mxCell>
        <mxCell id="YL0PsNm_QgpDCuNlVShX-68" style="edgeStyle=orthogonalEdgeStyle;rounded=0;orthogonalLoop=1;jettySize=auto;html=1;entryX=0;entryY=0.5;entryDx=0;entryDy=0;sketch=1;fontSize=14;" edge="1" parent="1" source="YL0PsNm_QgpDCuNlVShX-48" target="YL0PsNm_QgpDCuNlVShX-60">
          <mxGeometry relative="1" as="geometry" />
        </mxCell>
        <mxCell id="YL0PsNm_QgpDCuNlVShX-71" style="edgeStyle=orthogonalEdgeStyle;rounded=0;orthogonalLoop=1;jettySize=auto;html=1;entryX=1.004;entryY=-0.192;entryDx=0;entryDy=0;entryPerimeter=0;sketch=1;fontSize=14;" edge="1" parent="1" source="YL0PsNm_QgpDCuNlVShX-70" target="YL0PsNm_QgpDCuNlVShX-64">
          <mxGeometry relative="1" as="geometry" />
        </mxCell>
        <mxCell id="YL0PsNm_QgpDCuNlVShX-72" style="edgeStyle=orthogonalEdgeStyle;rounded=0;orthogonalLoop=1;jettySize=auto;html=1;sketch=1;fontSize=14;" edge="1" parent="1" source="YL0PsNm_QgpDCuNlVShX-70" target="YL0PsNm_QgpDCuNlVShX-64">
          <mxGeometry relative="1" as="geometry" />
        </mxCell>
        <mxCell id="YL0PsNm_QgpDCuNlVShX-70" value="&lt;font style=&quot;font-size: 16px;&quot;&gt;Use Polymorphic to assign transactions &lt;br style=&quot;&quot;&gt;with different Services&lt;br&gt;&lt;/font&gt;" style="shape=umlBoundary;whiteSpace=wrap;html=1;strokeColor=default;fillColor=default;perimeter=ellipsePerimeter;allowArrows=1;connectable=1;shadow=0;sketch=1;fontSize=14;rounded=0;" vertex="1" parent="1">
          <mxGeometry x="1232" y="241" width="370" height="300" as="geometry" />
        </mxCell>
      </root>
    </mxGraphModel>
  </diagram>
</mxfile>
